<svg width="24" height="24" viewBox="0 0 24 24" fill="none" xmlns="http://www.w3.org/2000/svg">
<path d="M7 4V2.5M17 4V2.5M2.5 9H21.5" stroke="#202022" stroke-linecap="round"/>
<path d="M18 17C18 17.2652 17.8946 17.5196 17.7071 17.7071C17.5196 17.8946 17.2652 18 17 18C16.7348 18 16.4804 17.8946 16.2929 17.7071C16.1054 17.5196 16 17.2652 16 17C16 16.7348 16.1054 16.4804 16.2929 16.2929C16.4804 16.1054 16.7348 16 17 16C17.2652 16 17.5196 16.1054 17.7071 16.2929C17.8946 16.4804 18 16.7348 18 17ZM18 13C18 13.2652 17.8946 13.5196 17.7071 13.7071C17.5196 13.8946 17.2652 14 17 14C16.7348 14 16.4804 13.8946 16.2929 13.7071C16.1054 13.5196 16 13.2652 16 13C16 12.7348 16.1054 12.4804 16.2929 12.2929C16.4804 12.1054 16.7348 12 17 12C17.2652 12 17.5196 12.1054 17.7071 12.2929C17.8946 12.4804 18 12.7348 18 13ZM13 17C13 17.2652 12.8946 17.5196 12.7071 17.7071C12.5196 17.8946 12.2652 18 12 18C11.7348 18 11.4804 17.8946 11.2929 17.7071C11.1054 17.5196 11 17.2652 11 17C11 16.7348 11.1054 16.4804 11.2929 16.2929C11.4804 16.1054 11.7348 16 12 16C12.2652 16 12.5196 16.1054 12.7071 16.2929C12.8946 16.4804 13 16.7348 13 17ZM13 13C13 13.2652 12.8946 13.5196 12.7071 13.7071C12.5196 13.8946 12.2652 14 12 14C11.7348 14 11.4804 13.8946 11.2929 13.7071C11.1054 13.5196 11 13.2652 11 13C11 12.7348 11.1054 12.4804 11.2929 12.2929C11.4804 12.1054 11.7348 12 12 12C12.2652 12 12.5196 12.1054 12.7071 12.2929C12.8946 12.4804 13 12.7348 13 13ZM8 17C8 17.2652 7.89464 17.5196 7.70711 17.7071C7.51957 17.8946 7.26522 18 7 18C6.73478 18 6.48043 17.8946 6.29289 17.7071C6.10536 17.5196 6 17.2652 6 17C6 16.7348 6.10536 16.4804 6.29289 16.2929C6.48043 16.1054 6.73478 16 7 16C7.26522 16 7.51957 16.1054 7.70711 16.2929C7.89464 16.4804 8 16.7348 8 17ZM8 13C8 13.2652 7.89464 13.5196 7.70711 13.7071C7.51957 13.8946 7.26522 14 7 14C6.73478 14 6.48043 13.8946 6.29289 13.7071C6.10536 13.5196 6 13.2652 6 13C6 12.7348 6.10536 12.4804 6.29289 12.2929C6.48043 12.1054 6.73478 12 7 12C7.26522 12 7.51957 12.1054 7.70711 12.2929C7.89464 12.4804 8 12.7348 8 13Z" fill="#202022"/>
<path fill-rule="evenodd" clip-rule="evenodd" d="M22.2032 6.74898C21.9023 6.88084 21.5757 6.96476 21.233 6.99109C21.2829 7.19899 21.3242 7.42675 21.358 7.67765C21.4989 8.72582 21.5 10.1004 21.5 12V14C21.5 15.8996 21.4989 17.2742 21.358 18.3224C21.2189 19.3561 20.9521 19.9972 20.4746 20.4743L20.4743 20.4746C19.9972 20.9521 19.3561 21.2189 18.3224 21.358C17.2742 21.4989 15.8996 21.5 14 21.5H10C8.10036 21.5 6.72582 21.4989 5.67765 21.358C4.64385 21.2189 4.00279 20.9521 3.5257 20.4746L3.5254 20.4743C3.04791 19.9972 2.78108 19.3561 2.64204 18.3224C2.50106 17.2742 2.5 15.8996 2.5 14V12C2.5 10.1004 2.50106 8.72582 2.64204 7.67765C2.78108 6.64385 3.04791 6.00279 3.5254 5.5257L3.5257 5.5254C4.00279 5.04791 4.64385 4.78108 5.67765 4.64204C6.72582 4.50106 8.10036 4.5 10 4.5H14C15.7464 4.5 17.049 4.5009 18.0622 4.61058C18.0214 4.41344 18 4.20922 18 4C18 3.86499 18.0089 3.73206 18.0262 3.60177C16.9718 3.49999 15.6632 3.49999 14.0387 3.5L14 3.5H10L9.9613 3.5C8.10858 3.49999 6.66687 3.49999 5.54435 3.65096C4.39973 3.80491 3.51234 4.12404 2.81845 4.81845C2.12404 5.51234 1.80491 6.39973 1.65096 7.54435C1.49999 8.66687 1.49999 10.1086 1.5 11.9613L1.5 12V14L1.5 14.0387C1.49999 15.8914 1.49999 17.3331 1.65096 18.4556C1.8049 19.6002 2.124 20.4875 2.8183 21.1814C3.51221 21.8759 4.39965 22.1951 5.54435 22.349C6.66688 22.5 8.10858 22.5 9.96131 22.5H10H14H14.0387C15.8914 22.5 17.3331 22.5 18.4556 22.349C19.6003 22.1951 20.4877 21.8759 21.1816 21.1815L21.1814 21.1817L20.828 20.828L21.1817 21.1814L21.1816 21.1815C21.876 20.4877 22.1951 19.6003 22.349 18.4556C22.5 17.3331 22.5 15.8914 22.5 14.0387V14V12V11.9613C22.5 10.1086 22.5 8.66688 22.349 7.54435C22.3113 7.26412 22.2638 6.99931 22.2032 6.74898Z" fill="#202022"/>
<circle cx="21" cy="4" r="2" fill="#CB3719"/>
</svg>
