<svg preserveAspectRatio="none" width="100%" height="100%" overflow="visible" style="display: block;" viewBox="0 0 116 70.0004" fill="none" xmlns="http://www.w3.org/2000/svg">
<g id="Group 46">
<path id="Union" d="M74.919 3.39839C88.3854 3.39839 99.3027 14.2344 99.3028 27.6015C99.3028 29.8152 99.0003 31.9589 98.4395 33.996C106.101 35.6485 111.84 42.4173 111.84 50.5175C111.84 59.2762 105.131 66.4797 96.5352 67.3398V67.4257H18.544V67.3818C9.70147 66.7655 2.72077 59.4516 2.72077 50.5175C2.72082 41.1796 10.3467 33.6095 19.754 33.6093C20.4577 33.6093 21.1518 33.652 21.8331 33.7343C21.9969 23.399 30.4874 15.0712 40.9385 15.0712C45.1605 15.0713 49.0621 16.4308 52.2247 18.7324C55.7892 9.75279 64.6066 3.39846 74.919 3.39839Z" fill="url(#paint0_linear_3008_19150)"/>
<g id="Group 45">
<g id="Vector">
<path d="M30.1735 69.3132C34.674 69.3132 39.1745 69.406 43.675 69.5914C44.175 69.612 44.6751 69.6337 45.1752 69.6566C44.6751 69.6795 44.175 69.7012 43.675 69.7218C39.1745 69.9072 34.674 70 30.1735 70C25.673 70 21.1725 69.9072 16.672 69.7218C16.1719 69.7012 15.6718 69.6795 15.1718 69.6566C15.6718 69.6337 16.1719 69.612 16.672 69.5914C21.1725 69.406 25.673 69.3132 30.1735 69.3132Z" fill="url(#paint1_linear_3008_19150)"/>
<path d="M59.0961 69.3132C61.3787 69.3132 63.6614 69.406 65.944 69.5914C66.1977 69.612 66.4515 69.6337 66.7051 69.6566C66.4515 69.6795 66.1977 69.7012 65.944 69.7218C63.6614 69.9072 61.3787 70 59.0961 70C56.8134 70 54.5306 69.9072 52.2479 69.7218C51.9943 69.7012 51.7407 69.6795 51.4871 69.6566C51.7407 69.6337 51.9943 69.612 52.2479 69.5914C54.5306 69.406 56.8134 69.3132 59.0961 69.3132Z" fill="url(#paint2_linear_3008_19150)"/>
<path d="M2.63551 40.9127C2.55814 41.0755 2.48333 41.2386 2.41062 41.4026C1.51589 43.4219 0.964926 45.5404 0.754423 47.6908C0.544449 49.8412 0.674776 52.0258 1.16164 54.1781C1.21582 54.4174 1.27398 54.6556 1.33708 54.8942C1.23066 54.6713 1.1305 54.4459 1.03616 54.2172C0.184996 52.1605 -0.155781 49.8669 0.0659627 47.6246C0.282709 45.3817 1.06145 43.196 2.29522 41.3401C2.39522 41.1892 2.49795 41.041 2.60377 40.8943C2.64268 40.8404 2.68159 40.7865 2.72064 40.7326C2.69231 40.7927 2.66399 40.8527 2.63551 40.9127Z" fill="url(#paint3_linear_3008_19150)"/>
<path d="M41.5717 12.7714C41.4565 12.7654 41.3414 12.7595 41.2263 12.7533C37.2905 12.5392 33.3619 13.4204 29.9419 15.2472C26.4184 17.1203 23.4378 19.9927 21.4398 23.5001C21.3572 23.6446 21.2759 23.7905 21.1963 23.9377C21.0619 24.1863 20.9271 24.4346 20.7919 24.6828C20.901 24.4223 21.0105 24.162 21.1204 23.9018C21.1858 23.7471 21.2532 23.5936 21.3226 23.4411C22.9934 19.7394 25.9628 16.5766 29.6145 14.6422C33.1535 12.7456 37.31 12.0211 41.2422 12.5927C41.3563 12.609 41.4704 12.6252 41.5845 12.6416C42.0321 12.7061 42.4796 12.7719 42.927 12.8386C42.4751 12.8174 42.0233 12.7949 41.5717 12.7714Z" fill="url(#paint4_linear_3008_19150)"/>
<path d="M91.6905 6.74793C91.6071 6.66897 91.5236 6.59005 91.4402 6.51098C88.5936 3.80455 85.0341 1.93406 81.24 1.1099C77.3372 0.25404 73.1909 0.507517 69.3736 1.87793C69.2161 1.93426 69.0587 1.99241 68.9017 2.05269C68.6367 2.15443 68.3715 2.25582 68.1061 2.35674C68.3598 2.22952 68.6137 2.10278 68.8677 1.97638C69.0188 1.90126 69.1707 1.82829 69.3233 1.75741C73.0197 0.0280244 77.3481 -0.453102 81.3885 0.439128C85.3186 1.28725 88.9484 3.42398 91.5577 6.39935C91.6336 6.48546 91.7096 6.5715 91.7854 6.65773C92.0828 6.996 92.3793 7.33517 92.675 7.67502C92.346 7.36682 92.0179 7.05772 91.6905 6.74793Z" fill="url(#paint5_linear_3008_19150)"/>
<path d="M104.75 67.3393C105.259 67.1078 105.749 66.8582 106.232 66.5851C110.58 64.1499 113.727 59.9088 114.853 55.171C115.972 50.6106 115.191 45.6266 112.648 41.5748C112.553 41.4216 112.458 41.2683 112.363 41.1149C112.073 40.6449 111.783 40.1741 111.494 39.7027C111.821 40.1487 112.148 40.5952 112.473 41.0424C112.579 41.1883 112.685 41.3345 112.791 41.4806C115.657 45.3709 116.701 50.5868 115.526 55.3309C114.365 60.2652 110.853 64.59 106.292 66.7008C105.787 66.9393 105.277 67.1501 104.75 67.3393Z" fill="url(#paint6_linear_3008_19150)"/>
</g>
</g>
</g>
<defs>
<linearGradient id="paint0_linear_3008_19150" x1="29.0062" y1="14.7276" x2="106.29" y2="19.3504" gradientUnits="userSpaceOnUse">
<stop stop-color="#34AE6B"/>
<stop offset="1" stop-color="#2587F9"/>
</linearGradient>
<linearGradient id="paint1_linear_3008_19150" x1="14.5303" y1="27.7754" x2="94.2533" y2="14.889" gradientUnits="userSpaceOnUse">
<stop stop-color="#34AE6B"/>
<stop offset="1" stop-color="#2587F9"/>
</linearGradient>
<linearGradient id="paint2_linear_3008_19150" x1="14.5303" y1="27.7754" x2="94.2533" y2="14.889" gradientUnits="userSpaceOnUse">
<stop stop-color="#34AE6B"/>
<stop offset="1" stop-color="#2587F9"/>
</linearGradient>
<linearGradient id="paint3_linear_3008_19150" x1="14.5303" y1="27.7754" x2="94.2533" y2="14.889" gradientUnits="userSpaceOnUse">
<stop stop-color="#34AE6B"/>
<stop offset="1" stop-color="#2587F9"/>
</linearGradient>
<linearGradient id="paint4_linear_3008_19150" x1="14.5303" y1="27.7754" x2="94.2533" y2="14.889" gradientUnits="userSpaceOnUse">
<stop stop-color="#34AE6B"/>
<stop offset="1" stop-color="#2587F9"/>
</linearGradient>
<linearGradient id="paint5_linear_3008_19150" x1="14.5303" y1="27.7754" x2="94.2533" y2="14.889" gradientUnits="userSpaceOnUse">
<stop stop-color="#34AE6B"/>
<stop offset="1" stop-color="#2587F9"/>
</linearGradient>
<linearGradient id="paint6_linear_3008_19150" x1="14.5303" y1="27.7754" x2="94.2533" y2="14.889" gradientUnits="userSpaceOnUse">
<stop stop-color="#34AE6B"/>
<stop offset="1" stop-color="#2587F9"/>
</linearGradient>
</defs>
</svg>
