<svg preserveAspectRatio="none" width="100%" height="100%" overflow="visible" style="display: block;" viewBox="0 0 204.907 36.5234" fill="none" xmlns="http://www.w3.org/2000/svg">
<g id="&#208;&#162;&#208;&#158;&#208;&#159;-100">
<path d="M18.5303 0.488281V36.0352H10.5957V0.488281H18.5303ZM29.3457 0.488281V6.66504H0V0.488281H29.3457Z" fill="#34AE6B"/>
<path d="M62.2314 17.4805V19.0674C62.2314 21.7692 61.8571 24.1943 61.1084 26.3428C60.376 28.4912 59.3262 30.3223 57.959 31.8359C56.6081 33.3496 54.9967 34.5133 53.125 35.3271C51.2695 36.1247 49.2106 36.5234 46.9482 36.5234C44.6859 36.5234 42.6188 36.1247 40.7471 35.3271C38.8753 34.5133 37.2477 33.3496 35.8643 31.8359C34.4971 30.3223 33.4391 28.4912 32.6904 26.3428C31.9417 24.1943 31.5674 21.7692 31.5674 19.0674V17.4805C31.5674 14.7786 31.9417 12.3535 32.6904 10.2051C33.4391 8.04036 34.4889 6.20117 35.8398 4.6875C37.207 3.17383 38.8265 2.01823 40.6982 1.2207C42.57 0.406901 44.637 0 46.8994 0C49.1618 0 51.2288 0.406901 53.1006 1.2207C54.9723 2.01823 56.5837 3.17383 57.9346 4.6875C59.3018 6.20117 60.3597 8.04036 61.1084 10.2051C61.8571 12.3535 62.2314 14.7786 62.2314 17.4805ZM54.1992 19.0674V17.4316C54.1992 15.625 54.0365 14.0299 53.7109 12.6465C53.3854 11.2467 52.9134 10.0749 52.2949 9.13086C51.6764 8.18685 50.9115 7.47884 50 7.00684C49.0885 6.51855 48.055 6.27441 46.8994 6.27441C45.695 6.27441 44.6452 6.51855 43.75 7.00684C42.8548 7.47884 42.098 8.18685 41.4795 9.13086C40.8773 10.0749 40.4134 11.2467 40.0879 12.6465C39.7786 14.0299 39.624 15.625 39.624 17.4316V19.0674C39.624 20.8577 39.7786 22.4528 40.0879 23.8525C40.4134 25.236 40.8854 26.4079 41.5039 27.3682C42.1224 28.3285 42.8792 29.0527 43.7744 29.541C44.6859 30.0293 45.7438 30.2734 46.9482 30.2734C48.1038 30.2734 49.1292 30.0293 50.0244 29.541C50.9359 29.0527 51.7008 28.3285 52.3193 27.3682C52.9378 26.4079 53.4017 25.236 53.7109 23.8525C54.0365 22.4528 54.1992 20.8577 54.1992 19.0674Z" fill="#34AE6B"/>
<path d="M96.5332 0.488281V36.0352H88.5742V6.66504H75.0488V36.0352H67.1143V0.488281H96.5332Z" fill="#34AE6B"/>
<path d="M116.968 17.7734V23.7305H102.759V17.7734H116.968Z" fill="#34AE6B"/>
<path d="M140.576 0.463867V36.0352H132.935V9.15527L124.683 11.6699V5.76172L139.819 0.463867H140.576Z" fill="#34AE6B"/>
<path d="M176.05 15.0879V21.4111C176.05 24.0153 175.757 26.2695 175.171 28.1738C174.601 30.0781 173.771 31.6488 172.681 32.8857C171.606 34.1227 170.321 35.0423 168.823 35.6445C167.342 36.2305 165.698 36.5234 163.892 36.5234C162.443 36.5234 161.092 36.3363 159.839 35.9619C158.586 35.5876 157.454 35.0098 156.445 34.2285C155.452 33.431 154.598 32.4382 153.882 31.25C153.166 30.0618 152.612 28.6458 152.222 27.002C151.847 25.3581 151.66 23.4945 151.66 21.4111V15.0879C151.66 12.4512 151.945 10.1888 152.515 8.30078C153.101 6.41276 153.939 4.85026 155.029 3.61328C156.12 2.3763 157.406 1.46484 158.887 0.878906C160.384 0.292969 162.036 0 163.843 0C165.291 0 166.634 0.187174 167.871 0.561523C169.124 0.935872 170.256 1.51367 171.265 2.29492C172.274 3.07617 173.128 4.06087 173.828 5.24902C174.544 6.43717 175.09 7.85319 175.464 9.49707C175.854 11.1247 176.05 12.9883 176.05 15.0879ZM168.433 22.3633V14.0869C168.433 12.8662 168.359 11.8083 168.213 10.9131C168.083 10.0016 167.887 9.22852 167.627 8.59375C167.383 7.95898 167.074 7.44629 166.699 7.05566C166.325 6.66504 165.894 6.38021 165.405 6.20117C164.933 6.00586 164.412 5.9082 163.843 5.9082C163.127 5.9082 162.484 6.05469 161.914 6.34766C161.344 6.64062 160.864 7.10449 160.474 7.73926C160.083 8.35775 159.782 9.19596 159.57 10.2539C159.375 11.2956 159.277 12.5732 159.277 14.0869V22.3633C159.277 23.584 159.342 24.6501 159.473 25.5615C159.619 26.473 159.814 27.2542 160.059 27.9053C160.319 28.54 160.636 29.0609 161.011 29.4678C161.385 29.8584 161.816 30.1432 162.305 30.3223C162.793 30.5013 163.322 30.5908 163.892 30.5908C164.608 30.5908 165.243 30.4525 165.796 30.1758C166.349 29.8828 166.821 29.4189 167.212 28.7842C167.619 28.1331 167.92 27.2786 168.115 26.2207C168.327 25.1628 168.433 23.877 168.433 22.3633Z" fill="#34AE6B"/>
<path d="M204.907 15.0879V21.4111C204.907 24.0153 204.614 26.2695 204.028 28.1738C203.459 30.0781 202.629 31.6488 201.538 32.8857C200.464 34.1227 199.178 35.0423 197.681 35.6445C196.2 36.2305 194.556 36.5234 192.749 36.5234C191.3 36.5234 189.95 36.3363 188.696 35.9619C187.443 35.5876 186.312 35.0098 185.303 34.2285C184.31 33.431 183.455 32.4382 182.739 31.25C182.023 30.0618 181.47 28.6458 181.079 27.002C180.705 25.3581 180.518 23.4945 180.518 21.4111V15.0879C180.518 12.4512 180.802 10.1888 181.372 8.30078C181.958 6.41276 182.796 4.85026 183.887 3.61328C184.977 2.3763 186.263 1.46484 187.744 0.878906C189.242 0.292969 190.894 0 192.7 0C194.149 0 195.492 0.187174 196.729 0.561523C197.982 0.935872 199.113 1.51367 200.122 2.29492C201.131 3.07617 201.986 4.06087 202.686 5.24902C203.402 6.43717 203.947 7.85319 204.321 9.49707C204.712 11.1247 204.907 12.9883 204.907 15.0879ZM197.29 22.3633V14.0869C197.29 12.8662 197.217 11.8083 197.07 10.9131C196.94 10.0016 196.745 9.22852 196.484 8.59375C196.24 7.95898 195.931 7.44629 195.557 7.05566C195.182 6.66504 194.751 6.38021 194.263 6.20117C193.791 6.00586 193.27 5.9082 192.7 5.9082C191.984 5.9082 191.341 6.05469 190.771 6.34766C190.202 6.64062 189.722 7.10449 189.331 7.73926C188.94 8.35775 188.639 9.19596 188.428 10.2539C188.232 11.2956 188.135 12.5732 188.135 14.0869V22.3633C188.135 23.584 188.2 24.6501 188.33 25.5615C188.477 26.473 188.672 27.2542 188.916 27.9053C189.176 28.54 189.494 29.0609 189.868 29.4678C190.243 29.8584 190.674 30.1432 191.162 30.3223C191.65 30.5013 192.179 30.5908 192.749 30.5908C193.465 30.5908 194.1 30.4525 194.653 30.1758C195.207 29.8828 195.679 29.4189 196.069 28.7842C196.476 28.1331 196.777 27.2786 196.973 26.2207C197.184 25.1628 197.29 23.877 197.29 22.3633Z" fill="#34AE6B"/>
</g>
</svg>
