<svg preserveAspectRatio="none" width="100%" height="100%" overflow="visible" style="display: block;" viewBox="0 0 460 280" fill="none" xmlns="http://www.w3.org/2000/svg">
<g id="Group 46">
<path id="Union" d="M297.093 13.5904C350.494 13.5905 393.784 56.9353 393.784 110.404C393.784 119.257 392.596 127.833 390.373 135.98C420.751 142.593 443.502 169.67 443.502 202.068C443.502 237.102 416.897 265.914 382.813 269.355V269.701H73.5353V269.531C38.4701 267.066 10.7882 237.804 10.7882 202.068C10.7883 164.716 41.03 134.436 78.3351 134.436C81.1241 134.436 83.874 134.605 86.5744 134.934C87.2243 93.5932 120.897 60.2808 162.341 60.2808C179.084 60.2808 194.557 65.7187 207.099 74.9253C221.234 39.0079 256.2 13.5904 297.093 13.5904Z" fill="url(#paint0_linear_3002_18861)"/>
<g id="Group 45">
<g id="Vector">
<path d="M119.653 277.253C137.5 277.253 155.347 277.624 173.194 278.366C175.177 278.448 177.16 278.535 179.143 278.626C177.16 278.718 175.177 278.805 173.194 278.887C155.347 279.629 137.5 280 119.653 280C101.807 280 83.9598 279.629 66.113 278.887C64.13 278.805 62.147 278.718 60.164 278.626C62.147 278.535 64.13 278.448 66.113 278.366C83.9598 277.624 101.807 277.253 119.653 277.253Z" fill="url(#paint1_linear_3002_18861)"/>
<path d="M234.347 277.253C243.398 277.253 252.45 277.624 261.502 278.366C262.508 278.448 263.514 278.535 264.52 278.626C263.514 278.718 262.508 278.805 261.502 278.887C252.45 279.629 243.398 280 234.347 280C225.295 280 216.242 279.629 207.19 278.887C206.184 278.805 205.179 278.718 204.173 278.626C205.179 278.535 206.184 278.448 207.19 278.366C216.242 277.624 225.295 277.253 234.347 277.253Z" fill="url(#paint2_linear_3002_18861)"/>
<path d="M10.4512 163.651C10.1443 164.302 9.84768 164.954 9.55934 165.61C6.01127 173.687 3.82643 182.162 2.99168 190.763C2.15902 199.365 2.67584 208.103 4.60651 216.712C4.82135 217.669 5.05198 218.623 5.30221 219.577C4.88019 218.685 4.48302 217.784 4.10889 216.869C0.733604 208.642 -0.617751 199.468 0.261576 190.498C1.12109 181.527 4.2092 172.784 9.10172 165.36C9.4983 164.757 9.90566 164.164 10.3253 163.577C10.4796 163.362 10.6339 163.146 10.7888 162.931C10.6764 163.171 10.5641 163.411 10.4512 163.651Z" fill="url(#paint3_linear_3002_18861)"/>
<path d="M164.853 51.0855C164.397 51.0616 163.94 51.0379 163.484 51.0133C147.876 50.157 132.297 53.6816 118.735 60.9889C104.763 68.4813 92.9432 79.9709 85.0199 94.0004C84.6923 94.5786 84.3699 95.1621 84.0542 95.751C83.5212 96.7451 82.9868 97.7386 82.4506 98.7311C82.8831 97.689 83.3176 96.6478 83.7534 95.6073C84.0127 94.9885 84.2801 94.3742 84.555 93.7645C91.1808 78.9578 102.956 66.3064 117.437 58.5687C131.471 50.9825 147.954 48.0845 163.546 50.3708C163.999 50.436 164.452 50.5007 164.904 50.5665C166.679 50.8245 168.454 51.0874 170.228 51.3546C168.436 51.2697 166.644 51.1796 164.853 51.0855Z" fill="url(#paint4_linear_3002_18861)"/>
<path d="M363.6 26.9917C363.269 26.6759 362.938 26.3602 362.608 26.0439C351.32 15.2182 337.204 7.73623 322.159 4.4396C306.682 1.01616 290.24 2.03007 275.102 7.51174C274.478 7.73702 273.854 7.96964 273.231 8.21075C272.18 8.61772 271.128 9.02329 270.076 9.42696C271.082 8.91809 272.089 8.4111 273.096 7.90554C273.695 7.60505 274.298 7.31314 274.903 7.02965C289.561 0.112098 306.725 -1.81241 322.748 1.75651C338.332 5.14898 352.726 13.6959 363.073 25.5974C363.374 25.9419 363.676 26.286 363.976 26.6309C365.156 27.984 366.332 29.3407 367.504 30.7001C366.2 29.4673 364.899 28.2309 363.6 26.9917Z" fill="url(#paint5_linear_3002_18861)"/>
<path d="M415.387 269.357C417.407 268.431 419.349 267.433 421.263 266.34C438.507 256.6 450.987 239.635 455.451 220.684C459.89 202.442 456.79 182.506 446.709 166.299C446.332 165.686 445.955 165.073 445.579 164.46C444.426 162.579 443.277 160.696 442.131 158.811C443.429 160.595 444.723 162.381 446.013 164.17C446.434 164.753 446.854 165.338 447.275 165.922C458.64 181.484 462.778 202.347 458.119 221.324C453.517 241.061 439.591 258.36 421.504 266.803C419.5 267.757 417.476 268.601 415.387 269.357Z" fill="url(#paint6_linear_3002_18861)"/>
</g>
</g>
</g>
<defs>
<linearGradient id="paint0_linear_3002_18861" x1="44.1301" y1="-54.7067" x2="435.205" y2="44.4613" gradientUnits="userSpaceOnUse">
<stop stop-color="#34AE6B"/>
<stop offset="1" stop-color="#2587F9"/>
</linearGradient>
<linearGradient id="paint1_linear_3002_18861" x1="35.4444" y1="-74.6677" x2="452.554" y2="28.1783" gradientUnits="userSpaceOnUse">
<stop stop-color="#34AE6B"/>
<stop offset="1" stop-color="#2587F9"/>
</linearGradient>
<linearGradient id="paint2_linear_3002_18861" x1="35.4444" y1="-74.6677" x2="452.554" y2="28.1783" gradientUnits="userSpaceOnUse">
<stop stop-color="#34AE6B"/>
<stop offset="1" stop-color="#2587F9"/>
</linearGradient>
<linearGradient id="paint3_linear_3002_18861" x1="35.4444" y1="-74.6677" x2="452.554" y2="28.1783" gradientUnits="userSpaceOnUse">
<stop stop-color="#34AE6B"/>
<stop offset="1" stop-color="#2587F9"/>
</linearGradient>
<linearGradient id="paint4_linear_3002_18861" x1="35.4444" y1="-74.6677" x2="452.554" y2="28.1783" gradientUnits="userSpaceOnUse">
<stop stop-color="#34AE6B"/>
<stop offset="1" stop-color="#2587F9"/>
</linearGradient>
<linearGradient id="paint5_linear_3002_18861" x1="35.4444" y1="-74.6677" x2="452.554" y2="28.1783" gradientUnits="userSpaceOnUse">
<stop stop-color="#34AE6B"/>
<stop offset="1" stop-color="#2587F9"/>
</linearGradient>
<linearGradient id="paint6_linear_3002_18861" x1="35.4444" y1="-74.6677" x2="452.554" y2="28.1783" gradientUnits="userSpaceOnUse">
<stop stop-color="#34AE6B"/>
<stop offset="1" stop-color="#2587F9"/>
</linearGradient>
</defs>
</svg>
